<svg xmlns="http://www.w3.org/2000/svg" xmlns:xlink="http://www.w3.org/1999/xlink" width="500" zoomAndPan="magnify" viewBox="0 0 375 374.999991" height="500" preserveAspectRatio="xMidYMid meet" version="1.0"><defs><g/><clipPath id="8729070c2e"><path d="M 247 161.792969 L 278.464844 161.792969 L 278.464844 187 L 247 187 Z M 247 161.792969 " clip-rule="nonzero"/></clipPath></defs><rect x="-37.5" width="450" fill="#ffffff" y="-37.499999" height="449.999989" fill-opacity="1"/><rect x="-37.5" width="450" fill="#08070b" y="-37.499999" height="449.999989" fill-opacity="1"/><g clip-path="url(#8729070c2e)"><path fill="#d8b706" d="M 257.230469 186.945312 C 253.539062 186.945312 250.074219 186.507812 247.0625 185.742188 C 249.136719 186.058594 251.351562 186.226562 253.65625 186.226562 C 265.203125 186.226562 274.5625 181.964844 274.5625 176.707031 C 274.5625 173.128906 270.230469 170.011719 263.824219 168.382812 C 272.140625 169.640625 278.140625 173.210938 278.140625 177.425781 C 278.140625 182.679688 268.777344 186.945312 257.230469 186.945312 Z M 257.617188 166.804688 L 257.617188 166.726562 C 262.226562 166.726562 262.5625 165.980469 262.5625 161.78125 L 262.640625 161.78125 C 262.640625 165.980469 262.976562 166.726562 267.585938 166.726562 L 267.585938 166.804688 C 262.976562 166.804688 262.640625 167.550781 262.640625 171.75 L 262.5625 171.75 C 262.5625 167.550781 262.226562 166.804688 257.617188 166.804688 " fill-opacity="1" fill-rule="evenodd"/></g><g fill="#d8b706" fill-opacity="1"><g transform="translate(136.414221, 213.894228)"><g><path d="M 26.46875 -69.734375 C 26.851562 -69.734375 27.191406 -69.601562 27.484375 -69.34375 C 27.785156 -69.09375 27.957031 -68.800781 28 -68.46875 C 28.03125 -67.84375 28.007812 -67.226562 27.9375 -66.625 C 27.894531 -66 27.804688 -65.40625 27.671875 -64.84375 C 27.640625 -64.59375 27.625 -64.363281 27.625 -64.15625 C 26.101562 -57.269531 24.203125 -50.539062 21.921875 -43.96875 C 21.710938 -43.21875 21.609375 -42.457031 21.609375 -41.6875 C 21.679688 -40.769531 21.507812 -39.90625 21.09375 -39.09375 C 20.132812 -37.65625 19.359375 -36.160156 18.765625 -34.609375 C 14.867188 -23.503906 10.6875 -12.535156 6.21875 -1.703125 C 2.457031 7.585938 -1.800781 16.660156 -6.5625 25.515625 C -7.863281 27.835938 -9.253906 30.140625 -10.734375 32.421875 C -11.460938 33.398438 -12.265625 34.3125 -13.140625 35.15625 C -13.953125 35.832031 -14.882812 36.023438 -15.9375 35.734375 C -17.03125 35.460938 -17.554688 34.757812 -17.515625 33.625 C -17.378906 32.289062 -17.082031 30.988281 -16.625 29.71875 C -13.882812 22.125 -10.847656 14.65625 -7.515625 7.3125 C -1.390625 -6.613281 5.71875 -19.992188 13.8125 -32.828125 C 15.289062 -35.285156 16.429688 -37.835938 17.234375 -40.484375 C 18.671875 -44.796875 20.019531 -49.125 21.28125 -53.46875 C 22.550781 -57.8125 23.644531 -62.195312 24.5625 -66.625 C 24.695312 -67.34375 24.875 -68.066406 25.09375 -68.796875 C 25.34375 -69.421875 25.800781 -69.734375 26.46875 -69.734375 Z M -11.515625 27.671875 C -7.578125 20.503906 -3.992188 13.195312 -0.765625 5.75 C 2.453125 -1.6875 5.410156 -9.269531 8.109375 -17 C 8.078125 -16.96875 8.039062 -16.898438 8 -16.796875 C 7.863281 -16.722656 7.738281 -16.617188 7.625 -16.484375 C 7.3125 -15.953125 7.015625 -15.425781 6.734375 -14.90625 C 3.179688 -8.320312 -0.101562 -1.613281 -3.125 5.21875 C -6.144531 12.0625 -9.023438 18.929688 -11.765625 25.828125 C -11.804688 25.929688 -11.828125 26 -11.828125 26.03125 C -11.941406 26.25 -12 26.492188 -12 26.765625 C -12 27.046875 -11.835938 27.347656 -11.515625 27.671875 Z M 152.75 -71.328125 C 152.75 -71.148438 152.664062 -70.972656 152.5 -70.796875 C 152.332031 -70.628906 152.144531 -70.5 151.9375 -70.40625 C 151.726562 -70.320312 151.535156 -70.332031 151.359375 -70.4375 C 150.265625 -71.101562 149.101562 -71.550781 147.875 -71.78125 C 146.644531 -72.007812 145.421875 -72.191406 144.203125 -72.328125 C 143.273438 -72.367188 142.375 -72.472656 141.5 -72.640625 C 138.195312 -73.140625 134.894531 -73.5625 131.59375 -73.90625 C 120.757812 -74.789062 109.894531 -75.269531 99 -75.34375 C 88.507812 -75.476562 78.007812 -75.25 67.5 -74.65625 C 55.644531 -74.0625 43.8125 -73.179688 32 -72.015625 C 21.132812 -71.035156 10.304688 -69.851562 -0.484375 -68.46875 C -1.160156 -68.375 -1.863281 -68.289062 -2.59375 -68.21875 C -6.71875 -67.65625 -10.835938 -67.054688 -14.953125 -66.421875 C -19.066406 -65.796875 -23.175781 -65.019531 -27.28125 -64.09375 C -27.601562 -64 -27.9375 -63.914062 -28.28125 -63.84375 C -29.875 -63.457031 -31.472656 -63.035156 -33.078125 -62.578125 C -34.691406 -62.117188 -36.238281 -61.503906 -37.71875 -60.734375 C -37.925781 -60.617188 -38.15625 -60.53125 -38.40625 -60.46875 C -38.726562 -60.4375 -39.039062 -60.453125 -39.34375 -60.515625 C -39.644531 -60.585938 -39.878906 -60.765625 -40.046875 -61.046875 C -40.222656 -61.359375 -40.25 -61.644531 -40.125 -61.90625 C -40 -62.175781 -39.78125 -62.398438 -39.46875 -62.578125 C -38.507812 -63.078125 -37.503906 -63.519531 -36.453125 -63.90625 C -33.828125 -64.78125 -31.175781 -65.523438 -28.5 -66.140625 C -25.820312 -66.753906 -23.128906 -67.289062 -20.421875 -67.75 C -12.617188 -69.070312 -4.816406 -70.226562 2.984375 -71.21875 C 10.796875 -72.207031 18.644531 -73.085938 26.53125 -73.859375 C 37.59375 -74.984375 48.664062 -75.882812 59.75 -76.5625 C 69.414062 -77.1875 79.082031 -77.550781 88.75 -77.65625 C 95.851562 -77.726562 102.945312 -77.660156 110.03125 -77.453125 C 117.113281 -77.242188 124.195312 -76.820312 131.28125 -76.1875 C 137.738281 -75.507812 144.15625 -74.519531 150.53125 -73.21875 C 151.125 -73.082031 151.671875 -72.875 152.171875 -72.59375 C 152.585938 -72.28125 152.78125 -71.859375 152.75 -71.328125 Z M 152.75 -71.328125 "/></g></g></g><g fill="#d8b706" fill-opacity="1"><g transform="translate(157.502957, 213.894228)"><g><path d="M 20.875 -14.65625 C 21.320312 -14.394531 21.351562 -13.769531 20.96875 -12.78125 C 20.414062 -12.050781 19.820312 -11.367188 19.1875 -10.734375 C 18.550781 -10.097656 17.863281 -9.53125 17.125 -9.03125 C 17.0625 -9.03125 17.03125 -9.007812 17.03125 -8.96875 C 16.53125 -8.625 16.003906 -8.328125 15.453125 -8.078125 C 10.867188 -6.429688 8.53125 -7.398438 8.4375 -10.984375 C 6.570312 -9.378906 5.320312 -8.394531 4.6875 -8.03125 C 3.175781 -7.125 1.535156 -6.71875 -0.234375 -6.8125 C -1.535156 -6.894531 -2.421875 -7.296875 -2.890625 -8.015625 C -3.359375 -8.734375 -3.316406 -9.707031 -2.765625 -10.9375 C -1.921875 -12.875 -0.722656 -14.597656 0.828125 -16.109375 C 2.648438 -17.796875 4.675781 -19.148438 6.90625 -20.171875 C 8.09375 -20.765625 9.335938 -20.992188 10.640625 -20.859375 C 11.941406 -20.785156 12.726562 -20.046875 13 -18.640625 C 13.113281 -18.222656 13.007812 -17.847656 12.6875 -17.515625 C 12.269531 -17.140625 11.78125 -17.054688 11.21875 -17.265625 C 11.175781 -17.265625 11.125 -17.269531 11.0625 -17.28125 C 11 -17.300781 10.945312 -17.332031 10.90625 -17.375 C 10.34375 -18.144531 9.78125 -18.46875 9.21875 -18.34375 C 8.65625 -18.21875 8.054688 -17.960938 7.421875 -17.578125 C 4.460938 -15.847656 2.265625 -13.441406 0.828125 -10.359375 C 0.753906 -10.222656 0.707031 -10.070312 0.6875 -9.90625 C 0.664062 -9.75 0.710938 -9.617188 0.828125 -9.515625 C 1.179688 -9.398438 1.566406 -9.425781 1.984375 -9.59375 C 2.410156 -9.757812 2.832031 -10 3.25 -10.3125 C 3.675781 -10.625 4.03125 -10.890625 4.3125 -11.109375 C 4.351562 -11.160156 4.375 -11.1875 4.375 -11.1875 C 5.769531 -12.363281 7.140625 -13.5625 8.484375 -14.78125 C 9.078125 -15.414062 9.816406 -15.773438 10.703125 -15.859375 C 11.960938 -15.859375 12.488281 -15.289062 12.28125 -14.15625 C 12.164062 -13.726562 12.039062 -13.304688 11.90625 -12.890625 C 11.40625 -11.066406 11.382812 -9.992188 11.84375 -9.671875 C 12.3125 -9.359375 13.019531 -9.359375 13.96875 -9.671875 C 14.914062 -9.992188 15.863281 -10.597656 16.8125 -11.484375 C 17.757812 -12.378906 18.5625 -13.195312 19.21875 -13.9375 C 19.875 -14.675781 20.425781 -14.914062 20.875 -14.65625 Z M 20.875 -14.65625 "/></g></g></g><g fill="#d8b706" fill-opacity="1"><g transform="translate(176.577762, 213.894228)"><g><path d="M 22.78125 -14.359375 C 23.09375 -13.972656 22.710938 -13.269531 21.640625 -12.25 C 20.566406 -11.238281 19.425781 -10.382812 18.21875 -9.6875 C 17.007812 -9 15.609375 -8.3125 14.015625 -7.625 C 12.953125 -7.164062 11.828125 -7.007812 10.640625 -7.15625 C 9.453125 -7.3125 8.859375 -8.03125 8.859375 -9.3125 C 8.859375 -10.601562 9.15625 -11.878906 9.75 -13.140625 C 10.34375 -14.453125 10.472656 -15.125 10.140625 -15.15625 C 9.804688 -15.195312 9.113281 -14.882812 8.0625 -14.21875 C 5.3125 -12.414062 2.757812 -10.351562 0.40625 -8.03125 C -0.226562 -7.257812 -1.035156 -6.835938 -2.015625 -6.765625 C -2.515625 -6.765625 -2.898438 -6.921875 -3.171875 -7.234375 C -3.453125 -7.546875 -3.488281 -7.882812 -3.28125 -8.25 C -1.59375 -11.382812 0.113281 -14.472656 1.84375 -17.515625 C 2.226562 -18.148438 2.800781 -18.546875 3.5625 -18.703125 C 3.894531 -18.753906 4.195312 -18.648438 4.46875 -18.390625 C 4.75 -18.140625 4.890625 -17.847656 4.890625 -17.515625 C 4.847656 -17.210938 4.722656 -16.847656 4.515625 -16.421875 C 4.421875 -16.171875 4.328125 -15.929688 4.234375 -15.703125 C 4.148438 -15.472656 4.125 -15.28125 4.15625 -15.125 C 4.1875 -14.976562 4.304688 -14.929688 4.515625 -14.984375 C 4.804688 -15.140625 5.09375 -15.304688 5.375 -15.484375 C 6.101562 -15.898438 6.804688 -16.300781 7.484375 -16.6875 C 8.078125 -17.03125 8.695312 -17.335938 9.34375 -17.609375 C 10 -17.878906 10.679688 -18.0625 11.390625 -18.15625 C 12.546875 -18.226562 13.363281 -17.96875 13.84375 -17.375 C 14.320312 -16.78125 14.378906 -15.957031 14.015625 -14.90625 C 13.628906 -13.945312 13.222656 -13 12.796875 -12.0625 C 12.285156 -11.175781 12.203125 -10.5 12.546875 -10.03125 C 12.890625 -9.570312 14.488281 -10.101562 17.34375 -11.625 L 19.5 -12.890625 C 21.539062 -14.191406 22.632812 -14.679688 22.78125 -14.359375 Z M 22.78125 -14.359375 "/></g></g></g><g fill="#d8b706" fill-opacity="1"><g transform="translate(197.666498, 213.894228)"><g><path d="M 18.359375 -24.21875 C 18.179688 -23.800781 17.96875 -23.398438 17.71875 -23.015625 C 14.59375 -17.953125 11.046875 -13.242188 7.078125 -8.890625 C 6.535156 -8.253906 5.953125 -7.6875 5.328125 -7.1875 C 4.734375 -6.769531 4.097656 -6.472656 3.421875 -6.296875 C 1.523438 -5.972656 0.421875 -6.734375 0.109375 -8.578125 C 0.0351562 -9.722656 0.0351562 -10.863281 0.109375 -12 C 0.109375 -12.519531 0.109375 -13.023438 0.109375 -13.515625 C 0.109375 -13.515625 0.140625 -13.515625 0.203125 -13.515625 C 0.203125 -13.867188 0.203125 -14.207031 0.203125 -14.53125 C 0.203125 -15.375 0.203125 -16.21875 0.203125 -17.0625 C 0.203125 -17.519531 0.222656 -17.988281 0.265625 -18.46875 C 0.472656 -19.519531 1 -20.066406 1.84375 -20.109375 C 2.757812 -20.066406 3.265625 -19.414062 3.359375 -18.15625 C 3.359375 -17.8125 3.332031 -17.492188 3.28125 -17.203125 C 3.238281 -16.898438 3.21875 -16.625 3.21875 -16.375 C 3.144531 -14.507812 3.085938 -12.628906 3.046875 -10.734375 C 3.046875 -10.304688 3.226562 -10.054688 3.59375 -9.984375 C 3.726562 -9.984375 3.847656 -10.007812 3.953125 -10.0625 C 4.054688 -10.125 4.148438 -10.203125 4.234375 -10.296875 C 5.335938 -11.597656 6.421875 -12.90625 7.484375 -14.21875 C 7.898438 -14.726562 8.320312 -15.234375 8.75 -15.734375 C 9.207031 -16.328125 9.664062 -16.894531 10.125 -17.4375 C 11.945312 -19.71875 13.78125 -21.976562 15.625 -24.21875 C 15.832031 -24.507812 16.070312 -24.757812 16.34375 -24.96875 C 16.625 -25.1875 16.976562 -25.296875 17.40625 -25.296875 C 17.75 -25.253906 18.046875 -25.128906 18.296875 -24.921875 C 18.367188 -24.835938 18.40625 -24.726562 18.40625 -24.59375 C 18.40625 -24.457031 18.390625 -24.332031 18.359375 -24.21875 Z M 18.359375 -24.21875 "/></g></g></g><g fill="#d8b706" fill-opacity="1"><g transform="translate(212.972375, 213.894228)"><g><path d="M 11.421875 -12.125 C 10.398438 -10.90625 9.191406 -9.785156 7.796875 -8.765625 C 6.398438 -7.753906 4.816406 -7.070312 3.046875 -6.71875 C 1.285156 -6.363281 -0.0820312 -6.492188 -1.0625 -7.109375 C -2.039062 -7.722656 -2.234375 -9.082031 -1.640625 -11.1875 C -0.867188 -13.375 0.1875 -15.457031 1.53125 -17.4375 C 1.832031 -17.851562 2.269531 -18.148438 2.84375 -18.328125 C 3.269531 -18.421875 3.640625 -18.347656 3.953125 -18.109375 C 4.273438 -17.867188 4.394531 -17.566406 4.3125 -17.203125 C 4.03125 -16.515625 3.710938 -15.820312 3.359375 -15.125 C 3.015625 -14.4375 2.785156 -13.988281 2.671875 -13.78125 C 2.003906 -12.550781 1.535156 -11.265625 1.265625 -9.921875 C 1.265625 -9.160156 2.289062 -9.113281 4.34375 -9.78125 C 6.394531 -10.445312 8.390625 -11.675781 10.328125 -13.46875 C 12.265625 -15.269531 13.1875 -15.800781 13.09375 -15.0625 C 13.007812 -14.320312 12.453125 -13.34375 11.421875 -12.125 Z M 6.421875 -21.75 C 6.316406 -21.675781 6.113281 -21.582031 5.8125 -21.46875 C 5.519531 -21.363281 5.207031 -21.285156 4.875 -21.234375 C 4.539062 -21.191406 4.273438 -21.25 4.078125 -21.40625 C 3.890625 -21.5625 3.882812 -21.867188 4.0625 -22.328125 C 4.363281 -23.128906 4.679688 -23.832031 5.015625 -24.4375 C 5.359375 -25.039062 5.796875 -25.707031 6.328125 -26.4375 C 6.671875 -26.757812 7.046875 -26.9375 7.453125 -26.96875 C 7.859375 -27 8.191406 -26.894531 8.453125 -26.65625 C 8.722656 -26.414062 8.800781 -26.082031 8.6875 -25.65625 C 8.269531 -24.144531 7.515625 -22.84375 6.421875 -21.75 Z M 6.421875 -21.75 "/></g></g></g><g fill="#d8b706" fill-opacity="1"><g transform="translate(224.192849, 213.894228)"><g><path d="M 13.796875 -17.671875 C 13.628906 -16.347656 13.007812 -15.484375 11.9375 -15.078125 C 10.863281 -14.671875 10.515625 -15.195312 10.890625 -16.65625 C 11.265625 -18.113281 10.609375 -18.484375 8.921875 -17.765625 C 7.234375 -17.046875 5.84375 -16.140625 4.75 -15.046875 C 3.0625 -13.316406 1.566406 -11.457031 0.265625 -9.46875 C 0.128906 -9.289062 0.0195312 -9.144531 -0.0625 -9.03125 C -0.445312 -8.476562 -0.828125 -7.953125 -1.203125 -7.453125 C -1.453125 -7.109375 -1.742188 -6.890625 -2.078125 -6.796875 C -2.421875 -6.710938 -2.765625 -6.703125 -3.109375 -6.765625 C -3.429688 -6.796875 -3.675781 -6.914062 -3.84375 -7.125 C -4.019531 -7.34375 -4.039062 -7.597656 -3.90625 -7.890625 C -3.695312 -8.398438 -3.453125 -8.925781 -3.171875 -9.46875 C -1.441406 -12.664062 0.3125 -15.878906 2.09375 -19.109375 C 2.132812 -19.140625 2.15625 -19.175781 2.15625 -19.21875 C 2.40625 -19.71875 2.703125 -20.175781 3.046875 -20.59375 C 3.429688 -21.019531 3.875 -21.191406 4.375 -21.109375 C 4.875 -21.035156 5.207031 -20.738281 5.375 -20.21875 C 5.59375 -19.550781 5.773438 -19.171875 5.921875 -19.078125 C 6.078125 -18.992188 6.425781 -19.0625 6.96875 -19.28125 C 8.113281 -19.695312 9.234375 -19.988281 10.328125 -20.15625 C 11.421875 -20.332031 12.316406 -20.289062 13.015625 -20.03125 C 13.710938 -19.78125 13.972656 -18.992188 13.796875 -17.671875 Z M 13.796875 -17.671875 "/></g></g></g></svg>